<?xml version="1.0" encoding="utf-8"?>
<!-- Generator: Adobe Illustrator 28.3.0, SVG Export Plug-In . SVG Version: 6.00 Build 0)  -->
<svg version="1.1" id="图层_1" xmlns="http://www.w3.org/2000/svg" xmlns:xlink="http://www.w3.org/1999/xlink" x="0px" y="0px"
	 viewBox="0 0 300 300" style="enable-background:new 0 0 300 300;" xml:space="preserve">
<style type="text/css">
	.st0{fill:#202020;}
</style>
<path class="st0" d="M39.9,82.1c1.2-2.9,3.5-4.6,7-5.2c2.7-0.5,5.2,0,8,1.5c2.9,1.4,4.5,3.6,4.9,6.2c0.2,1.4,0.4,5.6,0.2,7.1
	c0,1.5-0.2,2.8-0.4,4.3c-0.2,1.5-0.1,6.2-0.3,7.7c0,1.5,0,3,0.3,4.6c0.2,1.4,0.9,4.5,1.5,8.8c1,4.2,1.9,8.3,2.4,11.9
	c5.9-2.8,11.2-5.3,15.9-7.1c5.1-2.2,10.1-4.1,14.9-5.7c5-1.9,10-3.3,15-4.8l16.1-4.5c0.1-6.4-0.2-12.8-0.7-19.1
	c-0.5-6.3-1.2-12.3-2-17.6c-0.3-1.9,0.2-4,1.6-6.2c1.3-2.2,3-3.8,4.8-4.1c0.8-0.2,2.1-0.1,3.5-0.4c1.7,0.2,3.2,0.4,4.5,0.6
	c1.5,0.4,2.9,0.9,3.8,1.5c1.4,0.7,1.9,1.4,2.1,2.8c0.4,2.6,0.8,5.5,0.9,8.7c0,2.9,0.1,6.1-0.2,9.6l-0.2,9.7c-0.2,3,0.5,6.7,0.3,11
	c2.4-0.5,15.5-2.6,17-2.4c1.7-0.1,3.2,0.2,4.1,0.7c1.1,0.3,2,1.1,2.6,2.2c1,1,1.9,2.6,2.5,4.4c-0.2,1.5-0.4,2.8-0.7,3.8
	c-0.1,0.8-0.4,1.8-0.8,3.3c-0.3,0.8-1,1.7-2,2.3c-0.7,0.6-1.9,1.1-3.6,1.4c-1.2,0.2-2.5,0.2-4.2,0c-1.3-0.3-14.2,1.6-16.7,1.3
	c-0.3,4.7-2.1,11-3,18.8c-1,7.6-2.5,15.7-4.1,24.4c-1.7,8.4-3.5,17.1-6,26c-2.1,8.8-4.6,16.9-7.7,24.3c-2.9,7.2-6.2,13.2-9.9,18.1
	c-3.5,4.8-7.6,7.8-12.1,8.7c-2.9,0.5-5.4,0-8.1-1c-2.7-1.2-5.1-3-7.2-5.1c-2-2.1-4-4.7-5.7-7.3c-1.7-2.6-3.1-5.3-4.3-8.1
	c-2.2-5.2-4.3-10.5-6.4-16.1L61.7,187l-5.1-17.3L52,152.8l-4.7-17.6c-1.3-5.9-2.7-11.3-3.8-16c-1.2-5-2-12.2-3-16
	c-0.8-3.8-1.4-9.4-1.7-11.3C38.3,88.3,38.7,85,39.9,82.1z M72.8,163.2c1.8,6.6,3.6,12.9,5.3,18.7c1,2.8,2.1,6,3.1,9.3
	c0.9,3.3,2,6.5,3.2,10l3.8,10.4c1.4,3.7,2.9,6.8,4.6,9.7c0.5,0.6,1,1.1,1.5,1.5c0.9,0.3,1.3,0.5,1.5,0.4c1.2-0.2,2.7-1.5,4.5-3.8
	c1.8-2.3,3.4-5.3,4.9-9c5.6-12.9,9.9-26.7,12.7-41.7c3-15.1,5.1-30.5,6.4-46c-10.6,2-20.2,4.7-29.4,8.2c-9.2,3.2-18.4,7.1-27.8,11.8
	C69.1,149.6,71,156.4,72.8,163.2z"/>
<path class="st0" d="M273.8,156c-5.2,16.8-13.3,28.2-24.1,34.6c-10.7,6.2-23.2,6.7-37.6,1.3c-4.3-1.6-8.6-4.6-13.1-8.8
	c-4.6-4.5-8.3-9.7-11.1-16c-3.9,13.2-7.2,24.7-9.6,34.2c-2.6,9.2-4.3,15.5-5.3,18.7c-0.8,2.5-1.5,4.9-1.9,7c-0.6,2-0.7,3.9-0.6,6.1
	l-0.4,3.7c-0.1,1.1-0.1,1.9-0.2,2.4c-0.3,1-1.7,1.6-4.2,2c-1.5,0-3.2-0.1-4.7-0.1c-1.6-0.6-3-0.9-3.9-1.2c-1.8-0.7-4.3-3.3-7.3-7.2
	c-0.7-1.1-1.5-2.5-2.5-4c-1-1.5-1.3-3-0.9-4.2c0.2-0.5,0.4-1.2,0.8-1.9c0.3-1,1.1-1.8,2.1-2.8c1-2.4,2.3-5.8,4.2-10.3l5.2-13.5
	l4.4-12.4l1.8-5.9c2.8-10.6,5.6-20.3,8.3-29.2c1.2-4,2.2-7.7,3.3-11.5l3.5-11.1c0.9-3.5,1.9-6.8,2.6-9.2l1.9-6.2
	c0.3-1,0.8-2.7,1.8-4.9l2.4-7.7l3.4-9.2l2.7-8.7c0.8-2.7,1.8-4.9,2.5-6.5l0.9-3c1.5-4.9,4-7.9,7-9.5c2.7-1.5,5.6-1.8,8.3-0.8
	c3.4,1.3,5.4,3.7,5.9,6.9c0.4,1.8,0.3,4-0.2,6.3c-0.7,2.2-1.1,4.3-1.7,6.3c3.8-2.4,8.6-3.4,14.2-3.5c5.6-0.1,12.2,1.3,19.8,4.1
	c5.4,2,10.4,5.3,14.6,9.6c4.2,4.3,7.5,10,9.7,16.6c2.1,6.3,3,13.8,2.9,22.3C278.4,137.2,276.9,146.1,273.8,156z M253.1,149.8
	c9.7-31.2,5.5-49.9-12.3-56.6c-2.9-1.1-6-1.7-9.6-1.4c-3.5,0.1-6.9,1-10,3.1c-3.6,1.7-6.7,4.7-9.8,8.8c-3.2,3.8-5.6,9.2-7.7,15.9
	c-2.2,6.9-3.4,13.4-3.6,19.6c-0.3,5.9,0.4,11.7,1.8,16.7c1.5,5,3.7,9.1,6.8,13c3,3.3,6.7,6.1,11.2,7.8c6.8,2.5,13.2,1.4,19.2-3.6
	C245,168.4,249.8,160.5,253.1,149.8z"/>
</svg>
